<svg xmlns="http://www.w3.org/2000/svg" viewBox="0 0 48 48">
  <path fill="#EA4335" d="M24 9.5c3.9 0 7.1 1.4 9.4 3.3l7-7C36.5 2.3 30.7 0 24 0 14.6 0 6.6 5.5 2.6 13.5l8 6.1C12.9 14.1 18 9.5 24 9.5z"/>
  <path fill="#4285F4" d="M46.5 24.5c0-1.6-.1-2.8-.4-4H24v8.1h12.6c-.5 3-2.9 6-6.6 7.8l10 7.3c3.9-3.6 6.5-9.3 6.5-15.2z"/>
  <path fill="#FBBC05" d="M10.6 28.6c-1.2-3.6-1.2-7.4 0-11l-8-6.1C-0.8 16 0 20.5 0 24.5s-.8 8.5 2.6 11.1l8-6z"/>
  <path fill="#34A853" d="M24 48c6.7 0 12.5-2.3 17-6.2l-10-7.3c-2.1 1.4-4.7 2.2-7 2.2-6 0-11.1-4.6-12.9-10.6l-8 6C6.6 42.5 14.6 48 24 48z"/>
</svg>
